<svg width="306" height="300" viewBox="0 0 306 300" fill="none" xmlns="http://www.w3.org/2000/svg">
<path d="M304.552 230.352H281.848C283.944 219.152 271.496 211.264 263.752 215.392C262.957 211.511 260.772 208.054 257.608 205.671C254.444 203.287 250.518 202.141 246.568 202.448C246.147 199.699 245.107 197.081 243.527 194.792C241.948 192.503 239.869 190.602 237.448 189.232C236.696 180.272 237.032 171.152 237.048 162.304C238.408 162.4 241.672 162.704 241.144 161.408C239.544 157.44 236.808 150.816 234.744 147.008C235.576 147.008 236.52 147.008 236.52 146.16C236.776 130.8 237.272 98.5761 237.272 98.5761C237.528 79.5041 238.168 57.5841 224.776 41.8881C224.36 41.3921 223.784 41.2161 223.416 41.7281C217.968 49.4412 214.386 58.3144 212.952 67.6481C212.408 58.5281 211.688 48.2241 210.28 38.0321C207.88 20.7361 202.088 9.12007 192.68 2.22407C191.784 1.56807 190.472 0.512071 189.88 0.928071C175.192 11.3281 170.872 29.4721 169.848 42.8641C169.48 48.5601 169.368 54.3361 169.512 60.0641C167.544 52.7201 160.792 38.3841 158.312 41.8401C146.76 58.3841 147.736 79.7601 148.712 98.6241C150.312 134.56 150.792 143.824 151 146.24C151 147.024 151 147.552 153.208 147.312C148.552 159.648 147.592 161.712 148.008 162.064C148.424 162.416 150.072 162.304 150.872 162.256C150.76 167.648 152.04 193.856 151.864 195.248C150.703 196.663 149.769 198.25 149.096 199.952C146.369 200.694 143.838 202.026 141.681 203.853C139.525 205.681 137.796 207.959 136.616 210.528C134.488 210.32 132.342 210.673 130.392 211.552C128.472 190.256 124.536 158.064 119.72 136.624C127.96 137.696 131.896 134 133.8 130.8C138.6 122.432 135.4 108.528 129.448 100.832C124.41 90.1144 117.022 80.6698 107.832 73.2001C108.808 71.3441 106.232 62.9121 99.6882 59.4401C96.8882 57.9521 93.1602 57.8401 91.4482 56.2401C87.7842 52.6561 90.2482 43.1201 82.6162 40.6241C82.1226 36.6806 81.3038 32.7847 80.1682 28.9761C89.7682 24.8481 89.2722 13.6801 83.6082 10.5121C78.3282 7.56807 75.4162 11.7441 71.9442 12.9121C67.1442 14.5121 63.0642 11.0561 56.7602 11.0561C44.8722 11.0561 42.0562 23.0241 41.4322 23.6161C40.8082 24.2081 40.5682 27.5841 35.2722 29.6641C29.6402 31.8561 22.4722 31.9841 19.4162 38.6081C16.8242 44.4001 21.8002 51.4721 18.3762 56.8321C16.3762 60.0321 9.19224 60.2241 3.97624 68.5921C-1.60776 77.5041 0.264237 89.6001 7.96024 94.6241C1.33624 109.504 1.64024 125.328 8.74424 135.984C15.2402 145.696 25.8322 149.344 37.3362 149.04C36.7602 176.144 37.0002 203.168 35.5602 230.448C30.3602 230.448 25.1442 230.56 20.0402 230.656C19.896 230.656 19.7576 230.713 19.6556 230.815C19.5535 230.917 19.4962 231.056 19.4962 231.2C19.4962 231.344 19.5535 231.483 19.6556 231.585C19.7576 231.687 19.896 231.744 20.0402 231.744C24.6002 231.84 29.9922 231.936 35.4642 231.936C34.5842 247.824 33.4002 263.936 31.9442 279.728C31.8002 281.328 35.5442 281.232 37.1282 281.328C36.6907 283.55 36.5242 285.818 36.6322 288.08C35.4162 289.152 33.6402 296.48 33.7362 297.84C33.7362 298.128 33.8642 298.304 34.0562 298.336C35.8162 298.624 62.4082 299.936 63.6402 298.48C63.671 298.424 63.6872 298.36 63.6872 298.296C63.6872 298.232 63.671 298.169 63.6402 298.112C61.8642 293.312 55.6402 289.264 50.5522 287.952L51.9282 281.824C52.9842 281.824 55.1282 281.984 55.4322 281.424C62.5842 265.296 69.0962 248.64 74.7762 231.952H98.0402C102.472 246.178 106.384 260.561 109.768 275.072C111.128 280.928 110.184 280.608 113.96 280.784C113.942 283.066 114.217 285.34 114.776 287.552C113.549 290.44 112.808 293.511 112.584 296.64C112.553 296.694 112.537 296.754 112.537 296.816C112.537 296.878 112.553 296.939 112.584 296.992C113.592 298.272 142.312 299.344 144.28 298.176C145.88 297.152 137.112 288.656 129.336 287.088C129.448 285.045 129.4 282.996 129.192 280.96C130.552 280.96 133.688 281.328 133.688 279.984C133.688 264.88 133.176 248.704 132.088 231.984H304.6C304.817 231.978 305.022 231.886 305.17 231.728C305.319 231.571 305.399 231.361 305.392 231.144C305.386 230.928 305.294 230.723 305.136 230.574C304.979 230.426 304.769 230.346 304.552 230.352ZM87.8322 201.808C91.8162 212.768 93.9442 219.584 97.5442 230.496H75.2562C79.1442 218.992 84.5202 201.696 88.0562 187.152C89.2562 182.352 91.6722 184.384 90.7922 188.288C89.7682 193.104 87.7842 201.696 87.8322 201.808ZM128.2 287.248C125.464 288.496 118.6 288.416 115.928 287.648C115.752 285.36 115.288 283.072 115.256 280.784L127.832 280.928C127.944 283.04 128.072 285.136 128.2 287.248ZM38.6002 149.024C52.0402 148.352 68.0242 142.208 81.4002 132.56C81.6882 132.352 81.9442 132.304 82.0242 132.032C82.1042 131.76 82.0242 131.536 81.5442 130.848C85.3016 129.089 89.247 127.763 93.3042 126.896C94.9042 126.608 99.5922 125.712 100.44 123.168L103.928 123.072C107.288 130.032 112.632 134.864 118.616 136.368L121.816 155.392C95.3842 164.496 71.2562 166.432 38.6962 162C38.8082 157.696 38.8242 153.328 38.6482 149.024H38.6002ZM80.5362 51.5041C78.2962 57.3121 73.6242 57.5521 74.3762 58.9281V59.4241C74.6802 61.9681 75.2722 67.2001 71.1762 70.8961C64.2642 68.1441 59.9762 64.9761 56.7762 60.3681C57.4482 59.2001 56.7762 54.0961 56.7762 54.0481C55.7842 48.8321 51.2402 47.7761 52.2642 43.0561C52.4082 42.3681 52.6162 41.9681 52.8882 41.8401C53.7842 41.4401 56.0882 44.5281 56.5682 40.9441C57.3202 35.8241 58.7602 31.8721 63.8322 30.4321C68.5362 29.1041 73.0802 31.3761 79.1602 29.2801C80.5362 34.9761 82.9042 45.2801 80.5362 51.5041ZM71.4162 72.3041C74.1842 71.6161 76.5522 64.8161 75.9762 61.0081C80.2944 61.6181 84.547 62.625 88.6802 64.0161C103.72 69.3761 116.776 80.8321 125.592 96.3841C119.576 90.6241 111.704 87.3761 104.584 87.8241C102.314 84.1039 99.7058 80.6011 96.7922 77.3601C96.7487 77.312 96.6956 77.2736 96.6364 77.2473C96.5771 77.221 96.513 77.2075 96.4482 77.2075C96.3834 77.2075 96.3193 77.221 96.2601 77.2473C96.2008 77.2736 96.1477 77.312 96.1042 77.3601C96.0583 77.4048 96.0217 77.4583 95.9968 77.5174C95.9718 77.5765 95.959 77.6399 95.959 77.7041C95.959 77.7682 95.9718 77.8317 95.9968 77.8908C96.0217 77.9499 96.0583 78.0033 96.1042 78.0481C98.6605 81.2269 101.017 84.5613 103.16 88.0321C101.04 88.3521 98.9954 89.057 97.1282 90.1121C96.8258 90.1418 96.5262 90.1953 96.2322 90.2721C95.3537 90.4706 94.4597 90.5938 93.5602 90.6401C89.8162 90.6401 89.6722 89.0401 88.3282 89.2161C85.6562 89.4881 86.4402 94.7681 92.5842 95.8881C91.4802 98.9761 90.9842 105.776 93.0482 108.688C90.5842 108.688 89.0002 108.176 88.9042 110.688C88.8721 111.141 88.8721 111.595 88.9042 112.048C88.1109 111.538 87.213 111.212 86.2768 111.096C85.3407 110.979 84.3903 111.075 83.4962 111.376C81.8162 112.016 78.6162 115.36 77.0002 116.752C77.0002 116.08 77.0002 115.056 76.4082 114.992C66.2482 114.144 50.8082 113.904 41.5602 114.16C41.0532 107.632 41.1389 101.072 41.8162 94.5601C41.8438 94.4264 41.8172 94.2873 41.7422 94.1732C41.6671 94.0592 41.5499 93.9797 41.4162 93.9521C41.2826 93.9245 41.1434 93.9511 41.0294 94.0262C40.9154 94.1012 40.8358 94.2184 40.8082 94.3521C40.2962 97.2321 39.3042 108.976 40.3442 114.208L27.2402 115.072C27.1435 115.081 27.0518 115.12 26.9772 115.182C26.9027 115.244 26.8489 115.328 26.8229 115.421C26.7969 115.515 26.7999 115.614 26.8316 115.706C26.8632 115.798 26.9221 115.878 27.0002 115.936C27.0453 115.976 27.099 116.006 27.1572 116.023C27.2154 116.039 27.2766 116.043 27.3362 116.032C43.4902 115.043 59.6927 115.15 75.8322 116.352C75.9066 121.758 77.5339 127.029 80.5202 131.536C59.1762 146.912 24.0562 156.96 9.72024 135.168C-0.599763 119.6 4.52024 92.4001 23.6562 75.7921C32.7965 67.9554 43.9172 62.7853 55.8002 60.8481C58.6962 66.3681 69.3202 72.7841 71.4002 72.2721L71.4162 72.3041ZM95.1282 91.6961C94.313 92.5569 93.6284 93.5326 93.0962 94.5921C90.1042 94.1441 88.4082 92.5761 88.1202 91.2801C87.8962 90.3841 88.4242 90.0161 89.5282 90.7681C91.2649 91.6154 93.211 91.9379 95.1282 91.6961ZM102.904 100.512C102.823 100.605 102.775 100.723 102.768 100.846C102.76 100.97 102.794 101.092 102.863 101.194C102.933 101.296 103.034 101.373 103.151 101.412C103.269 101.45 103.396 101.449 103.512 101.408C104.808 100.896 105.416 101.008 105.512 101.248C105.608 101.488 105.096 102.672 104.056 103.184C103.384 103.52 102.088 103.824 101.096 102.016C100.28 100.544 101.672 98.9281 101.096 98.5921C100.52 98.2561 98.8882 100.736 100.28 102.912C99.9927 103.123 99.6487 103.243 99.2924 103.257C98.9362 103.272 98.5837 103.179 98.2802 102.992C97.5762 102.448 97.0962 100.928 97.9122 98.1921C98.2162 97.1361 96.4242 96.8641 96.2002 101.392C96.1042 102.016 95.4162 105.856 95.2082 107.152C95.0002 108.448 94.7122 108.544 94.6802 108.56C94.6482 108.576 94.5042 108.56 94.3762 108.384C93.2402 107.104 91.8802 100.592 94.0562 95.5841C94.7327 93.8951 95.8884 92.4409 97.3809 91.4004C98.8734 90.3599 100.638 89.7786 102.456 89.7281C103.526 89.7076 104.585 89.9459 105.542 90.4226C106.5 90.8993 107.328 91.6003 107.957 92.466C108.585 93.3318 108.995 94.3365 109.152 95.3948C109.308 96.453 109.207 97.5334 108.856 98.5441C108.684 99.0819 108.391 99.5733 108 99.9809C107.609 100.388 107.13 100.701 106.6 100.896C106.418 100.584 106.164 100.319 105.86 100.123C105.556 99.9267 105.209 99.805 104.85 99.7676C104.49 99.7302 104.126 99.7782 103.788 99.9075C103.45 100.037 103.147 100.244 102.904 100.512ZM91.1282 114.064C90.9322 113.512 90.5541 113.044 90.0562 112.736L90.2482 110.144H97.8322C97.8322 111.008 98.0722 113.552 98.0722 113.552C95.7485 113.562 93.4283 113.733 91.1282 114.064ZM96.0882 108.704C96.5107 106.956 96.8154 105.181 97.0002 103.392C97.5202 103.959 98.2269 104.319 98.9908 104.407C99.7547 104.495 100.525 104.305 101.16 103.872L101.416 104.048C100.732 107.172 100.645 110.396 101.16 113.552H99.5602C99.6038 112.038 99.4368 110.525 99.0642 109.056C98.6002 108.64 96.7922 108.704 96.0882 108.704ZM83.7682 112.576C84.8406 112.308 85.9648 112.328 87.0268 112.634C88.0889 112.941 89.0512 113.522 89.8162 114.32C90.1042 114.8 90.0562 114.96 90.0402 115.008C90.0242 115.056 89.0802 115.184 88.4402 115.152C87.4947 114.999 86.5251 115.133 85.6562 115.536C84.3371 116.594 83.4728 118.117 83.2402 119.792C83.0002 123.872 94.7922 123.36 98.8242 123.232C95.8482 126.272 86.9842 125.584 80.9842 129.776C78.8875 126.159 77.5534 122.152 77.0642 118C78.1202 117.52 82.0722 113.312 83.7682 112.576ZM133.8 127.792C130.344 137.888 119.512 135.296 119.064 135.184C111.512 133.28 107.144 126.24 105.496 122.976C107.288 122.56 106.776 120.8 106.6 119.104L120.552 118.784C121.672 120.912 124.328 120.208 124.2 118.08C124.217 117.617 124.07 117.163 123.787 116.796C123.504 116.43 123.101 116.174 122.649 116.073C122.196 115.972 121.723 116.033 121.311 116.245C120.899 116.457 120.574 116.806 120.392 117.232C118.392 117.056 108.552 117.328 106.488 117.552C106.248 113.264 106.488 113.568 102.536 113.584C102.168 110.577 102.168 107.536 102.536 104.528C103.374 104.684 104.241 104.541 104.984 104.123C105.727 103.704 106.299 103.038 106.6 102.24C109.256 101.904 111.928 97.2961 109.576 92.3681C109.136 91.5408 108.529 90.8137 107.794 90.2327C107.059 89.6516 106.211 89.2292 105.304 88.9921C117.512 88.6721 128.568 98.5121 132.984 110.224C133.208 110.224 133.352 110.064 132.984 110.224C135.257 115.814 135.545 122.015 133.8 127.792ZM50.6002 281.792C50.0914 283.808 49.7173 285.855 49.4802 287.92C45.5885 288.323 41.6679 288.366 37.7682 288.048C38.0242 285.824 38.2642 283.616 38.5042 281.392L50.6002 281.792ZM263.88 216.336C267.368 213.472 282.792 217.12 280.488 230.4H131.992L130.6 212.672C138.712 209.856 144.664 214.144 146.76 219.36C147.128 220.336 149.192 219.504 145.976 215.488C143.933 212.962 141.047 211.258 137.848 210.688C145.592 195.776 167.512 198.16 171.768 214.192C171.992 215.04 173.256 214.624 173.032 213.776C171.748 209.048 168.73 204.978 164.578 202.377C160.426 199.776 155.446 198.836 150.632 199.744C151.989 197.017 153.996 194.666 156.477 192.898C158.958 191.131 161.837 190.002 164.857 189.612C167.878 189.221 170.949 189.581 173.798 190.659C176.647 191.736 179.187 193.5 181.192 195.792C182.664 197.392 187.592 206.768 189.192 207.872C187.877 210.128 187.053 212.636 186.776 215.232C184.798 215.957 183 217.1 181.503 218.582C180.007 220.065 178.847 221.853 178.104 223.824C178.051 223.945 178.048 224.082 178.096 224.205C178.144 224.328 178.239 224.427 178.36 224.48C178.481 224.533 178.618 224.536 178.741 224.488C178.864 224.44 178.963 224.345 179.016 224.224C179.984 221.982 181.52 220.03 183.472 218.563C185.424 217.095 187.726 216.162 190.149 215.855C192.572 215.548 195.033 215.878 197.289 216.813C199.546 217.747 201.52 219.254 203.016 221.184C203.122 221.333 203.283 221.433 203.463 221.463C203.643 221.493 203.828 221.45 203.976 221.344C204.125 221.238 204.225 221.077 204.255 220.897C204.285 220.717 204.242 220.533 204.136 220.384C202.293 217.943 199.76 216.111 196.865 215.125C193.971 214.138 190.846 214.041 187.896 214.848C188.366 212.3 189.347 209.874 190.78 207.716C192.213 205.557 194.067 203.711 196.232 202.288C198.85 200.61 201.851 199.624 204.954 199.424C208.057 199.224 211.16 199.815 213.972 201.142C216.784 202.47 219.212 204.49 221.029 207.013C222.846 209.537 223.993 212.48 224.36 215.568C224.395 215.728 224.486 215.869 224.618 215.966C224.749 216.063 224.911 216.109 225.073 216.095C225.236 216.081 225.388 216.009 225.501 215.891C225.614 215.774 225.681 215.619 225.688 215.456C225.264 211.934 223.902 208.591 221.743 205.776C219.584 202.961 216.708 200.779 213.416 199.456C214.484 196.639 216.257 194.143 218.565 192.207C220.873 190.271 223.64 188.96 226.6 188.4C235.944 186.96 243.96 194.144 245.144 202.608C242.696 203.013 240.372 203.968 238.346 205.401C236.32 206.834 234.646 208.707 233.448 210.88C233.16 211.424 234.04 211.904 234.344 211.376C236.091 208.423 238.76 206.126 241.939 204.837C245.119 203.547 248.634 203.338 251.944 204.24C255.129 205.255 257.9 207.272 259.844 209.992C261.788 212.711 262.8 215.986 262.728 219.328C262.728 219.76 263.304 220.304 263.736 220C263.912 219.888 264.424 219.52 263.896 216.336H263.88ZM171.32 43.7281C182.296 41.8081 193.72 41.4721 209.48 42.6401C212.008 64.3841 212.376 84.8641 212.776 106.736C209.704 99.9521 206.584 90.0481 206.632 83.2161C206.617 75.2685 204.685 67.4417 201 60.4001C196.616 52.0321 190.68 46.1121 184.216 53.0561C175.256 62.6561 175.896 74.2401 176.072 87.0881C175.479 92.8016 174.25 98.431 172.408 103.872C171.848 77.2001 170.296 57.5521 171.32 43.7281ZM235.448 145.712C234.271 145.528 233.073 145.528 231.896 145.712L232.056 133.104C232.103 132.818 232.084 132.526 232.001 132.249C231.918 131.971 231.773 131.717 231.576 131.504C227.912 128.432 217.656 118.544 214.264 109.728C214.264 100.448 214.12 91.0401 213.752 81.7601C221.864 81.5201 229.448 81.6161 235.832 81.7601C236.472 97.3601 235.272 124.624 235.448 145.712ZM171.544 188.512C168.305 187.792 164.936 187.901 161.751 188.83C158.565 189.759 155.665 191.476 153.32 193.824C153.208 190.384 152.504 169.008 152.264 162.288L170.44 161.936C170.392 165.184 171.24 185.376 171.544 188.512ZM206.968 94.2561C209.896 106.368 215.144 119.312 230.664 132.48C230.664 136.8 230.168 147.728 230.456 151.888C230.136 151.888 206.584 152.048 204.856 152.192C206.646 132.935 207.351 113.592 206.968 94.2561ZM176.424 94.4961C177.496 114.096 179.464 133.6 182.296 152.544C178.376 152.448 159.992 151.888 157.32 152.016C157.32 149.392 156.664 134.288 156.6 132.816C166.791 122.24 173.68 108.924 176.424 94.4961ZM171.624 161.904C172.776 161.904 175.32 162.176 175.176 161.04C174.457 158.538 173.476 156.12 172.248 153.824L182.456 153.968C182.696 155.44 182.92 156.912 183.144 158.384C181.64 159.984 178.6 169.264 178.184 170.944C178.152 171.056 178.147 171.173 178.169 171.287C178.192 171.401 178.241 171.509 178.312 171.6C178.696 172.08 179.704 172.144 180.776 172.144C176.12 179.52 178.648 188.64 180.424 193.136C178.21 191.195 175.616 189.735 172.808 188.848C173.176 185.92 171.832 164.592 171.64 161.904H171.624ZM179.816 179.248C180.155 176.778 180.959 174.395 182.184 172.224C189.565 172.52 196.956 172.44 204.328 171.984C205.208 175.456 213.224 184.56 203.272 198.24C200.571 198.606 197.978 199.536 195.66 200.969C193.341 202.403 191.351 204.308 189.816 206.56C184.152 198 178.376 189.552 179.832 179.248H179.816ZM205.56 111.696C205.32 127.824 204.328 141.952 203.144 157.408L184.312 157.904C180.76 133.312 179.24 115.712 177.912 95.5041C177.544 89.7761 177.176 83.8401 177.304 78.0321C177.512 68.0641 179.544 60.9601 183.704 55.6321C189.592 48.1281 194.36 51.4721 199.032 59.7761C201.715 64.5695 203.56 69.7858 204.488 75.2001C205.928 83.3601 205.64 107.04 205.576 111.696H205.56ZM212.28 199.04C209.978 198.294 207.561 197.969 205.144 198.08C207.836 194.277 209.336 189.758 209.453 185.1C209.57 180.442 208.298 175.854 205.8 171.92C206.84 171.92 209.608 171.92 209.288 170.944C208.744 169.12 207.208 165.328 205.976 162.272C205.176 160.256 204.376 158.512 204.376 158.048C204.472 157.2 204.856 153.424 204.856 153.424C206.344 153.664 213.464 153.424 215.88 153.424C213.848 159.824 214.12 159.024 213.688 160.128C213.368 160.976 213.208 161.392 213.416 161.728C213.624 162.064 214.472 162.048 216.616 162.096C216.616 171.328 217.4 182 217.8 191.2C215.208 193.19 213.287 195.926 212.296 199.04H212.28ZM217.64 162.08L235.864 162.256C235.284 170.968 235.316 179.709 235.96 188.416C233.214 187.212 230.202 186.739 227.218 187.045C224.235 187.35 221.382 188.424 218.936 190.16C218.6 180.8 218.344 171.184 217.656 162.08H217.64ZM171.4 42.5281C172.504 29.5841 176.76 12.2561 190.6 2.30407C203.912 11.4401 207.544 27.0401 209.304 41.1681C197.96 40.3361 181.992 40.4481 171.416 42.5281H171.4ZM149.8 83.8561C153.528 83.8561 167.4 83.6641 170.6 83.6481C170.888 91.3281 171.182 99.0187 171.48 106.72C168.52 114.4 161.88 126.208 155.656 132C155.336 133.6 155.752 143.904 155.832 145.76C154.664 145.872 153.496 145.984 152.408 146.144C151.768 124.608 149.8 96.7841 149.8 83.8561Z" fill="#27272A"/>
</svg>
